<svg xmlns="http://www.w3.org/2000/svg" shape-rendering="geometricPrecision" text-rendering="geometricPrecision" image-rendering="optimizeQuality" fill-rule="evenodd" clip-rule="evenodd" viewBox="0 0 512 190.285"><path d="M512 62.269c-32.208 3.503-65.126 11.155-82.935 11.576-5.87.14-13.175-.651-5.825-3.929 17.743-7.915 39.85-13.415 61.461-14.291-4.787-1.077-9.548-2.473-15.993-4.683-42.916-14.717-91.165-23.694-138.308-23.756-39.015-.053-79.822 5.737-115.535 22.126 13.263 12.299 25.007 25.723 35.154 40.787 21.629 32.107 31.567 79.665-13.75 96.773-37.675 14.221-72.262-18.318-76.731-54.787-3.222-26.29 6.915-45.475 19.352-63.408 5.258-7.581 11.717-14.262 19.168-20.104C105.119-16.905 17.276 26.293 0 117.511 4.91 5.165 125.544-21.164 205.932 42.942c70.469-46.003 210.713-30.084 282.411 7.501-9.463-9.291-17.535-22.446-22.866-35.006-.79-1.859-4.569-8.993-4.29-12.878.102-1.443.766-2.442 2.348-2.553.903-.063 1.863.407 2.868 1.35 2.92 2.749 9.199 13.053 15.44 23.057C491.104 39.255 499.115 50.13 512 62.269zm-304.367-6.573c13.918 12.907 26.764 28.048 37.028 43.982 16.542 25.678 22.453 56.275-1.472 72.95-14.806 10.319-30.931 9.682-44.76 1.389-49.808-29.871-25.747-96.994 9.204-118.321z"/></svg>